<?xml version="1.0" encoding="UTF-8" standalone="no"?>
<!-- Created with Inkscape (http://www.inkscape.org/) -->

<svg
   xmlns:dc="http://purl.org/dc/elements/1.1/"
   xmlns:cc="http://creativecommons.org/ns#"
   xmlns:rdf="http://www.w3.org/1999/02/22-rdf-syntax-ns#"
   xmlns:svg="http://www.w3.org/2000/svg"
   xmlns="http://www.w3.org/2000/svg"
   xmlns:sodipodi="http://sodipodi.sourceforge.net/DTD/sodipodi-0.dtd"
   xmlns:inkscape="http://www.inkscape.org/namespaces/inkscape"
   width="16"
   height="16"
   viewBox="0 0 4.2333334 4.2333334"
   version="1.1"
   id="svg5"
   inkscape:version="0.92.5 (2060ec1f9f, 2020-04-08)"
   sodipodi:docname="logo.svg">
  <metadata
     id="metadata13">
    <rdf:RDF>
      <cc:Work
         rdf:about="">
        <dc:format>image/svg+xml</dc:format>
        <dc:type
           rdf:resource="http://purl.org/dc/dcmitype/StillImage" />
        <dc:title></dc:title>
      </cc:Work>
    </rdf:RDF>
  </metadata>
  <sodipodi:namedview
     id="namedview7"
     pagecolor="#000000"
     bordercolor="#ffffff"
     borderopacity="1"
     inkscape:pageshadow="0"
     inkscape:pageopacity="0"
     inkscape:pagecheckerboard="false"
     inkscape:document-units="mm"
     showgrid="false"
     inkscape:snap-bbox="true"
     inkscape:bbox-paths="true"
     inkscape:bbox-nodes="true"
     inkscape:snap-bbox-edge-midpoints="true"
     inkscape:snap-bbox-midpoints="true"
     inkscape:object-paths="true"
     inkscape:snap-intersection-paths="true"
     inkscape:snap-smooth-nodes="true"
     inkscape:snap-midpoints="true"
     inkscape:snap-object-midpoints="true"
     inkscape:snap-center="true"
     inkscape:snap-text-baseline="true"
     inkscape:snap-page="true"
     inkscape:snap-global="true"
     inkscape:zoom="12.515625"
     inkscape:cx="19.421041"
     inkscape:cy="12.794125"
     inkscape:window-width="1366"
     inkscape:window-height="706"
     inkscape:window-x="0"
     inkscape:window-y="32"
     inkscape:window-maximized="1"
     inkscape:current-layer="layer1"
     units="px"
     width="512px" />
  <defs
     id="defs2">
    <inkscape:path-effect
       effect="bspline"
       id="path-effect1120"
       is_visible="true"
       lpeversion="1"
       weight="33.333333"
       steps="2"
       helper_size="0"
       apply_no_weight="true"
       apply_with_weight="true"
       only_selected="true" />
    <inkscape:path-effect
       effect="bspline"
       id="path-effect832"
       is_visible="true"
       lpeversion="1"
       weight="33.333333"
       steps="2"
       helper_size="0"
       apply_no_weight="true"
       apply_with_weight="true"
       only_selected="true" />
    <inkscape:path-effect
       effect="bspline"
       id="path-effect5622"
       is_visible="true"
       lpeversion="1"
       weight="20"
       steps="2"
       helper_size="0"
       apply_no_weight="true"
       apply_with_weight="true"
       only_selected="true" />
    <inkscape:path-effect
       effect="bspline"
       id="path-effect5048"
       is_visible="true"
       lpeversion="1"
       weight="33.333333"
       steps="2"
       helper_size="0"
       apply_no_weight="true"
       apply_with_weight="true"
       only_selected="false" />
    <inkscape:path-effect
       effect="bspline"
       id="path-effect4976"
       is_visible="true"
       lpeversion="1"
       weight="33.333333"
       steps="2"
       helper_size="0"
       apply_no_weight="true"
       apply_with_weight="true"
       only_selected="true" />
  </defs>
  <g
     inkscape:label="Layer 1"
     inkscape:groupmode="layer"
     id="layer1"
     transform="translate(294.66467,193.45076)">
    <path
       id="path14275"
       style="opacity:1;fill:#ffffff;fill-opacity:0.99013501;stroke-width:20.8832016;stroke-linecap:round;stroke-linejoin:round;paint-order:stroke fill markers"
       d="m -292.5478,-192.47898 c -0.63215,0 -1.14461,0.51247 -1.14461,1.14462 -0.0523,0.38154 -0.22707,0.74306 -0.47752,0.93002 -0.0152,0.0114 -0.0316,0.0244 -0.0417,0.0417 -0.0101,0.0175 -0.0155,0.0374 -0.0155,0.0577 0,0.0202 0.006,0.0401 0.0155,0.0577 0.0101,0.0175 0.0247,0.0321 0.0422,0.0422 0.0175,0.0101 0.0374,0.0155 0.0577,0.0155 h 1.56401 c 0.63215,0 1.14461,-0.51246 1.14461,-1.14461 0,-0.63216 -0.51246,-1.14462 -1.14461,-1.14462 z m 0.48452,0.58149 a 0.23053008,0.23053008 0 0 1 0.23052,0.23053 0.23053008,0.23053008 0 0 1 -0.23052,0.23053 0.23053008,0.23053008 0 0 1 -0.23054,-0.23053 0.23053008,0.23053008 0 0 1 0.23054,-0.23053 z"
       inkscape:connector-curvature="0" />
    <path
       id="path14277"
       style="opacity:1;fill:#ffffff;fill-opacity:0.99013501;stroke:none;stroke-width:115.71701813;stroke-linecap:round;stroke-linejoin:round;stroke-miterlimit:4;stroke-dasharray:none;stroke-opacity:1;paint-order:normal"
       d="m -292.86552,-193.45071 c -0.0566,0.003 -0.11912,0.0145 -0.18097,0.0292 -0.12368,0.0296 -0.24468,0.0703 -0.29186,0.14649 -0.0472,0.0762 -0.0205,0.18772 -0.0954,0.30796 -0.0748,0.12025 -0.25118,0.24919 -0.38791,0.28384 -0.13672,0.0347 -0.23383,-0.025 -0.34895,0.0535 -0.11512,0.0785 -0.24824,0.29524 -0.26625,0.43343 -0.018,0.13817 0.0791,0.19782 0.11001,0.33545 0.0309,0.13762 -0.005,0.35321 -0.0778,0.47432 -0.0734,0.12112 -0.18498,0.14777 -0.23159,0.22428 -0.0466,0.0765 -0.0283,0.20287 4.6e-4,0.32465 0.0287,0.12178 0.0679,0.23896 0.0916,0.28922 0.015,0.0318 0.0241,0.0352 0.0351,0.0264 0.002,-0.003 0.004,-0.006 0.005,-0.009 a 0.33764114,0.33764114 0 0 1 4.9e-4,-8.7e-4 c 0.0534,-0.0919 0.11053,-0.12679 0.13097,-0.14212 a 0.33764114,0.33764114 0 0 1 6.1e-4,-4.4e-4 c 0.14071,-0.10504 0.29607,-0.38411 0.34222,-0.68674 0.0147,-0.80219 0.67638,-1.45498 1.48188,-1.45498 0.81461,0 1.48222,0.66762 1.48222,1.48222 0,0.81462 -0.66761,1.48223 -1.48222,1.48224 h -1.18996 c -0.20758,0.0234 -0.21401,0.0858 -0.12267,0.16867 0.0958,0.087 0.31253,0.22013 0.45071,0.23813 0.13817,0.018 0.19783,-0.0791 0.33545,-0.11002 0.13763,-0.0309 0.3532,0.005 0.47432,0.0779 0.12111,0.0734 0.14776,0.18498 0.22427,0.23158 0.0765,0.0466 0.20286,0.0283 0.32655,-9.2e-4 0.12367,-0.0296 0.2447,-0.0704 0.29188,-0.14649 0.0472,-0.0761 0.0205,-0.18769 0.0954,-0.30795 0.0748,-0.12026 0.25118,-0.24921 0.38791,-0.28385 0.13672,-0.0347 0.23383,0.025 0.34894,-0.0535 0.11511,-0.0785 0.24823,-0.29523 0.26625,-0.43342 0.018,-0.13817 -0.0791,-0.19783 -0.10999,-0.33545 -0.0309,-0.13761 0.005,-0.35319 0.0778,-0.47431 0.0734,-0.12112 0.18499,-0.14777 0.23159,-0.22428 0.0466,-0.0765 0.0283,-0.20287 -9.3e-4,-0.32656 -0.0296,-0.12368 -0.0704,-0.24468 -0.14648,-0.29186 -0.0761,-0.0472 -0.18771,-0.0206 -0.30796,-0.0954 -0.12025,-0.0748 -0.2492,-0.25117 -0.28385,-0.3879 -0.0347,-0.13673 0.025,-0.23383 -0.0535,-0.34895 -0.0785,-0.11512 -0.29523,-0.24824 -0.43342,-0.26625 -0.13819,-0.018 -0.19784,0.0791 -0.33546,0.11002 -0.13761,0.0309 -0.3532,-0.005 -0.47431,-0.0779 -0.12113,-0.0734 -0.14778,-0.18498 -0.2243,-0.2316 -0.0383,-0.0233 -0.089,-0.0304 -0.1456,-0.0279 z"
       inkscape:connector-curvature="0" />
  </g>
</svg>
